<svg version="1.1" viewBox="0 0 96 96" xmlns="http://www.w3.org/2000/svg" xmlns:xlink="http://www.w3.org/1999/xlink" id="Icons_SolarPanels_M" overflow="hidden"><style>
.MsftOfcThm_Text1_Fill {
 fill:#000000; 
}
.MsftOfcThm_Text1_Stroke {
 stroke:#000000; 
}
</style>
<g id="Icons"><path d=" M 92.575 73 L 92.575 63.747 L 75.728 26.31 L 32.028 26.31 L 15.176 63.747 L 15.176 73 L 52.876 73 L 52.876 84 L 40.262 84 L 40.262 86 L 67.489 86 L 67.489 84 L 54.876 84 L 54.876 73 Z M 62.075 38.781 L 63.561 50.4 L 44.191 50.4 L 45.68 38.781 Z M 45.939 36.781 L 47.025 28.31 L 60.729 28.31 L 61.815 36.781 Z M 84.374 50.4 L 65.574 50.4 L 64.088 38.781 L 79.147 38.781 Z M 42.174 50.4 L 23.374 50.4 L 28.601 38.785 L 43.664 38.785 Z M 41.917 52.4 L 40.563 62.962 L 17.723 62.962 L 22.478 52.4 Z M 43.933 52.4 L 63.817 52.4 L 65.172 62.966 L 42.579 62.966 Z M 67.188 62.962 L 65.833 52.4 L 85.274 52.4 L 90.029 62.966 Z M 78.247 36.781 L 63.831 36.781 L 62.745 28.31 L 74.435 28.31 Z M 33.317 28.31 L 45.006 28.31 L 43.92 36.781 L 29.505 36.781 Z M 17.176 64.962 L 90.576 64.962 L 90.576 71 L 17.176 71 Z" stroke="#000000" stroke-width="1" stroke-dasharray="" stroke-dashoffset="1" stroke-opacity="1" fill="#000000" fill-opacity="1"/><rect x="16" y="6" width="2" height="5" stroke="#000000" stroke-width="1" stroke-dasharray="" stroke-dashoffset="1" stroke-opacity="1" fill="#000000" fill-opacity="1"/><rect x="16" y="27" width="2" height="5" stroke="#000000" stroke-width="1" stroke-dasharray="" stroke-dashoffset="1" stroke-opacity="1" fill="#000000" fill-opacity="1"/><rect x="25" y="18" width="5" height="2" stroke="#000000" stroke-width="1" stroke-dasharray="" stroke-dashoffset="1" stroke-opacity="1" fill="#000000" fill-opacity="1"/><rect x="4" y="18" width="5" height="2" stroke="#000000" stroke-width="1" stroke-dasharray="" stroke-dashoffset="1" stroke-opacity="1" fill="#000000" fill-opacity="1"/><rect x="21.925" y="10.575" width="5" height="2" stroke="#000000" stroke-width="1" stroke-dasharray="" stroke-dashoffset="1" stroke-opacity="1" fill="#000000" fill-opacity="1" transform="matrix(0.707107,-0.707107,0.707107,0.707107,-1.031,20.661)"/><rect x="7.076" y="25.425" width="5" height="2" stroke="#000000" stroke-width="1" stroke-dasharray="" stroke-dashoffset="1" stroke-opacity="1" fill="#000000" fill-opacity="1" transform="matrix(0.707107,-0.707107,0.707107,0.707107,-15.881,14.511)"/><rect x="8.576" y="9.075" width="2" height="5" stroke="#000000" stroke-width="1" stroke-dasharray="" stroke-dashoffset="1" stroke-opacity="1" fill="#000000" fill-opacity="1" transform="matrix(0.707057,-0.707156,0.707156,0.707057,-5.38,10.162)"/><rect x="23.425" y="23.925" width="2" height="5" stroke="#000000" stroke-width="1" stroke-dasharray="" stroke-dashoffset="1" stroke-opacity="1" fill="#000000" fill-opacity="1" transform="matrix(0.707057,-0.707156,0.707156,0.707057,-11.531,25.013)"/><path d=" M 23 19 C 23 15.6863 20.3137 13 17 13 C 13.6863 13 11 15.6863 11 19 C 11 22.3137 13.6863 25 17 25 C 20.3123 24.9967 22.9967 22.3123 23 19 Z M 13 19 C 13 16.7909 14.7909 15 17 15 C 19.2091 15 21 16.7909 21 19 C 21 21.2091 19.2091 23 17 23 C 14.7909 23 13 21.2091 13 19 Z" stroke="#000000" stroke-width="1" stroke-dasharray="" stroke-dashoffset="1" stroke-opacity="1" fill="#000000" fill-opacity="1"/></g></svg>